<?xml version="1.0" encoding="UTF-8"?> <svg xmlns="http://www.w3.org/2000/svg" viewBox="0 0 155.8 66.6"><g fill-rule="evenodd" clip-rule="evenodd"><path fill="#005C97" stroke="#005C97" stroke-width="2" stroke-miterlimit="10" d="M58.2 24.2c-.7-.6-.6-1.6-.8-2.4-.2-.7-.9-.7-1.1-1.3-.2-.4.5-1.2.5-1.2s-.8-.6-.9-.8c-.4-1.1-1-2.3-1.7-3.2-.3-.4-.3-1.6-.3-2.1-.1-.1-1.6-.7-1.6-.8-.6-.8-1.2-1.8-1.9-2.6-.1-.1-.3-.5-.4-.9 0 0-.8.3-1 .2-.4-.3-.5-.8-1.2-1.3-.2-.1-.8-1.6-.8-1.6s-1 .5-1.2.4c-.9-.7-1.6-1.6-1.8-1.8-.5-.3-1.3 0-1.9-.2-.5-.1-.7-.7-1.2-.9-1-.4-1.9-1.1-2.9-1.5-1.4-.5-2.6-.5-4-.5-.9 0-2-.6-3-.7-.3 0-.6.7-.9.8-.3.1-.7-.5-1.1-.5-2.2 0-4.6.5-6.5 1-.3.1-.4-.3-.7-.2-.7.2-.7.8-1.5 1.1-.6.2-1.9.1-2.6.3-.2.1-.6.6-.8.7-.3.2-.9.2-1.3 0 0 0-.4.8-.7.9-.5.2-1.1.4-1.5.8-2 1.3-4.9 4.2-6.8 6.8-.2.3.1.8-.1 1.1-.2.3-.9 0-1.2.2-.1.1.1 1 .1 1.2 0 .3-.9.1-1 .3-.7 1.2-1.7 4.1-2 5.5-.1.4 0 2.6-.1 3-.1.4-.9.3-.9.3s.6 3.3.6 4.1c0 .4-.9.4-1 .7 0 .4.6 1.1.6 1.4 0 .6-.2 2.8 0 3.2.3.6-.1 1.2 0 1.5 0 .2 1.1.5 1.2.7.3.7-.2 1.4 0 2 .3.8.3 1.9.6 2.6.2.5.8 1.1 1.1 1.6 1.3 2.5 2.4 4 4.1 6.2l.4-.1c.4.4.2 1.6.5 2 .6.7 2.2.9 2.9 1.4 1 .6 1.4 1.4 2.5 2.1.2.1.6 0 .8.2.5.3.7 1.1.9 1.2.4.2.7-.2 1.7.1.2.1 1.3.1 1.5.1.4.2.3.7.5.9.3.3.9.2 1.5.4 1.2.4 2.7.8 4.2.9.2 0 .6-.3.9-.3 2.5.3 4.7.7 7 .3.2 0 .8-.5 1.8-.8.4-.1.5.4.9.3.6-.1 2.1-.3 2.6-.8.3-.2-.5-.7-.2-.8.7-.2 1.4.3 1.6.2 1.2-.5 2.2-1.4 3.3-2 .6-.3 1.6-.5 2.1-.9.8-.6 2-1.6 3.2-2.7.3-.3-.5-.4-.2-.7.3-.3 1.5-1.3 1.8-1.6.2-.2-.3 1 .1.9.3-.1 1.5-1.3 1.7-1.5.5-.5.5-1.2.8-1.7.1-.2.5-.7.7-1 .4-.4.9-.4 1.1-.8.4-.6 0-1.3.3-1.7.4-.6.6-.1.8-.6.5-1 .6-2.2 1-3.1.1-.2.6-.1.7-.3.5-2 .5-4.6.6-6.7.1-2.2-.6-4.6-.4-7z"></path><path fill="#EE333E" d="M58.2 24.2c-.7-.6-.6-1.6-.8-2.4-.2-.7-.9-.7-1.1-1.3-.2-.4.5-1.2.5-1.2s-.8-.6-.9-.8c-.4-1.1-1-2.3-1.7-3.2-.3-.4-.3-1.6-.3-2.1-.1-.1-1.6-.7-1.6-.8-.6-.8-1.2-1.8-1.9-2.6-.1-.1-.3-.5-.4-.9 0 0-.8.3-1 .2-.4-.3-.5-.8-1.2-1.3-.2-.1-.8-1.6-.8-1.6s-1 .5-1.2.4c-.9-.7-1.5-1.6-1.8-1.8-.5-.3-1.3 0-1.9-.2-.5-.1-.7-.7-1.2-.9-1-.4-1.9-1.1-2.9-1.5-1.4-.5-2.6-.5-4-.5-.9 0-2-.6-3-.7-.3 0-.6.7-.9.8-.3.1-.7-.5-1.1-.5-2.2 0-4.6.5-6.5 1-.3.1-.4-.3-.7-.2-.7.2-.7.8-1.5 1.1-.6.2-1.9.1-2.6.3-.2.1-.6.6-.8.7-.3.2-.9.2-1.3 0 0 0-.4.8-.7.9-.5.2-1.1.4-1.5.8-2 1.3-4.9 4.2-6.8 6.8-.2.3.1.8-.1 1.1-.2.3-.9 0-1.2.2-.1.1.1 1 .1 1.2 0 .3-.9.1-1 .3-.7 1.2-1.7 4.1-2 5.5-.1.4 0 2.6-.1 3-.1.4-.9.3-.9.3s.5 3.5.4 4.3c0 .4-.9.4-1 .7 0 .4.6 1.1.6 1.4 0 .6-.2 2.8 0 3.2.3.6-.1 1.2 0 1.5 0 .2 1.1.5 1.2.7.3.7-.2 1.4 0 2 .3.8.3 1.9.6 2.6.2.5.8 1.1 1.1 1.6 1.3 2.5 2.4 4 4.1 6.2l.4-.1c.4.4.2 1.6.5 2 .6.7 2.2.9 2.9 1.4 1 .6 1.4 1.4 2.5 2.1.2.1.6 0 .8.2.5.3.7 1.1.9 1.2.4.2.7-.2 1.7.1.2.1 1.3.1 1.5.1.4.2.3.7.5.9.3.3.9.2 1.5.4 1.2.4 2.7.8 4.2.9.2 0 .6-.3.9-.3 2.5.3 4.7.7 7 .3.2 0 .8-.5 1.8-.8.4-.1.5.4.9.3.6-.1 2.1-.3 2.6-.8.3-.2-.5-.7-.2-.8.7-.2 1.4.3 1.6.2 1.2-.5 2.2-1.4 3.3-2 .6-.3 1.6-.5 2.1-.9.8-.6 2-1.6 3.2-2.7.3-.3-.5-.4-.2-.7.3-.3 1.5-1.3 1.8-1.6.2-.2-.3 1 .1.9.3-.1 1.5-1.3 1.7-1.5.5-.5.5-1.2.8-1.7.1-.2.5-.7.7-1 .4-.4.9-.4 1.1-.8.4-.6 0-1.3.3-1.7.4-.6.6-.1.8-.6.5-1 .6-2.2 1-3.1.1-.2.6-.1.7-.3.5-2 .5-4.6.6-6.7.4-2.4-.3-4.8-.2-7.2z"></path><path fill="#005C97" d="M50 12.5c-.2.3-.3.7-.5 1.1-.1.3-.4.7-.6 1-.1.2-.3.3-.4.4-.3.5-.4 1.1-.7 1.6-.2.3-.5.6-.7.9-.3.5-1.2 2.1-1.3 2.6-1 0-2.2-3.4-4.3-4.1l.1-.3c.7-.5 1.6-.6 2.4-1l.3-.2c.2-.1.4 0 .6-.1.4-.1.7-.4 1.1-.5 1.4-.5 2.6-1.1 4-1.4zM25.4 15c-.3 1-1.6 3.3-1.8 4.1-.7.6-1.4.6-2.2.9-.5.2-1 .6-1.6.7-.9.3-1.6.5-2.4.9l-.2-.4c.3-.5.6-1.1 1-1.6.2-.2.4-.4.5-.6.1-.2.2-.5.4-.7.7-.9 1.6-1.4 2.5-2 .6-.4 1.3-1.1 2-1.3.4-.2 1-.1 1.5-.3l.3.3z"></path><path fill="#FFF" d="M41.3 30.3c.1-.5-.1-1-.1-1.5 0-.6.2-.8 0-1.5 0-.1-.2-.6-.2-.7v-.2c.1-.5 0-.8 0-1.2l.1-.3.4.4c.7.5 3.7 1.7 4.7 2.2.4.2.7.5 1.1.7.3.1.6.3.9.4.9.4 1.7 1 2.6 1.4.2.1.4 0 .5.1.7.3 1.3.8 2 1.2.3.2.7.3 1 .5.2.1.3.3.5.3.2.1.4 0 .6.1.5.2 1 .6 1.5.7l-.2.1c-.6-.1-1.3-.2-2-.3-.3-.1-.7-.3-1-.3-.6-.1-1.4.1-2 0-.3-.1-.6-.2-1-.3-.3 0-.7.1-1 0-.7-.1-1.2-.6-1.9-.6-.3 0-.7.2-1 .1-.6-.1-1.3-.5-1.9-.6-.3 0-.7.1-1 0-.7-.1-1.2-.3-2-.2l-.6-.5z"></path><path fill="#005C97" d="M35.3 37.8c-.4.1-.9.4-1.3.5-.7.2-1.4.1-2.1.2-.3.1-.6.2-1 .3-.5.1-2.6.1-3-.1-.5-.1-1-.5-1.5-.7-.5-.2-1.1-.4-1.5-.7-.2-.1-.3-.4-.5-.6-.1-.1-.6-.2-.7-.3-.7-.6-1.6-1.9-2-2.7-.1-.2-.1-.4-.2-.6-.1-.1-.4-.5-.4-.6-.6-1.6 0-3.5-.2-5.2.5-.7 1.1-3.1 1.4-3.4.3-.4.7-.5.9-1.2.6-.3 1.1-.8 1.6-1.2 1-.7 2.1-.8 3.2-1.2.2-.1.5-.3.7-.3h.6c.4 0 .8-.2 1.2-.2.3 0 2.3.3 2.6.4 1 .3 2 1.3 3 1.4.4.4.5.8.8 1.2.3.3.7.7 1.1 1l.2.8c1.1.6 1 2.3 1.3 3.3l.3.9c.1.6-.2 1.2-.2 1.7 0 .6.3 1.2 0 1.8 0 .1-.4.5-.5.7-.2.4-.3 1.6-.7 2-.5.5-1.3 1.3-1.9 1.6-.1 0-.5.2-.5.2-.1.3-.4.7-.7 1zM22.3 41.2c-2.9-1.3-3-1.7-4.8-4.3l.3-.3c.7.2 1.3.6 2 .8.3.1.8.2 1.1.3.1 0 .6.5.7.6.3.8.5 1.8.9 2.6l-.2.3zM42.3 39c-2 2.7-2.6 3.2-5.7 4.6l-.4-.2c.1-.6.5-1.1.7-1.7.1-.2.1-.4.1-.6.2-.6.5-1.1.7-1.7.7-.6 1.4-.4 2.2-.5.4 0 .8-.2 1.1-.3.4-.1.8-.1 1.2-.1l.1.5zM44.6 48.5c-.6-.3-1.2-.5-1.8-.9-1.4-.8-2.9-1.7-4.4-2.3l-.1-.3c.8-.6 1.6-1 2.3-1.6 1-.8 1.7-1.9 2.7-2.6l.3.1c.3.7.2 1.4.4 2.1.1.4.2.7.3 1 .1.7.1 1.4.2 2.1l.3 2.1-.2.3zM21.5 43.5c-.4.2-.8.5-1.2.7-.4.2-.7.2-1.1.4-.5.2-.9.6-1.4.7-.2.1-.5.1-.7.2-.2.1-.4.3-.5.5-.7.5-1.7.6-2.5 1-.4.2-.8.5-1.2.7-.2.1-.5.1-.7.1l-.1-.1.1-.2c.2-.5.3-1 .6-1.5 0-.1.1-.1.1-.2.1-.2 0-.5.1-.7.1-.7.6-1.2.9-1.9.2-.5.2-.9.3-1.3.1-.5.5-.8.7-1.2.2-.4.1-.9.4-1.3.2-.4.5-.7.6-1.2h.4c.6.4 1 1 1.5 1.4 1.3 1.2 2.7 2.2 3.8 3.6v.3z"></path><path fill="#FFF" d="M25.8 23.1c-.5.4-2.4 2.6-2.6 3.1-.2.6 0 1.2-.1 1.8 0 .2-.1.4-.2.6-.1.6-.1 1.2-.1 1.8.2-.7.6-1.4.8-2.1.1-.4.1-.7.2-1.1.5-1.4 1.4-2.6 2.1-3.9l-.1-.2z"></path><path fill="#EE333E" d="M35.7 29.4c-.4-.4-.2-.8-.4-1.2-.3-.8-1.7-2.7-2.5-3-.1 0-.9-.1-1-.2-.6-.2-1.2-.6-1.9-.7-.1 0-.6.2-.7.2h-.7c-.3.1-1.7 1-1.9 1.2-.4.4-.5 1.1-.8 1.6-.4.8-.9 1.5-.9 2.4l.1.7c.1.2.3.4.4.6.4.7.6 1.5.9 2.2l.2.4c.3.3 1.2.8 1.5.9.3.1.6.1.9.2.2.1.6.2.8.3.7.1 1.5-.3 2.2-.2.5-.5 1.9-1.2 2.2-1.6 0 0 .9-1.3.9-1.4 0-.1.1-.1.1-.2.1-.4-.1-.7.3-1.2.1-.2.2-.7.3-1z"></path><path fill="#FFF" d="M37.5 30.2c-.2.8-.4 1.6-.7 2.4l.2.1c.5-.6 1.1-1.6.8-2.4l-.3-.1zM34.1 23.1l-.1.6.4.2h.9v-.3l-.8-.5z"></path><path fill="#005C97" d="M16.6 18.2h-.5c-.2-.6-.3-1.2-.4-1.8-.1-.2-.2-.4-.2-.6v-.7c0-.3-.2-.9-.3-1.2 0-.1-.3-.5-.3-.6v-.6c0-.2-.2-.4-.3-.6-.2-.4-.1-.8-.2-1.2l-.3-.6c-.1-.3 0-.5-.2-.8l-.2-.4.3-.1.2.1c.3.2.7.2 1 .4.2.1.3.3.5.4.4.2.8.2 1.2.4.2.1.3.3.5.4.7.5 1.7.8 2.4 1.3l.3.2c.2.1.5.1.6.1.4.5 1 .6 1.2.9-.5.2-1.5.9-1.9 1.3-.2.2-.3.5-.5.7-.2.2-.5.3-.7.4-.2.3-1.9 2.2-2.2 2.6z"></path><path fill="#FDB91F" d="M28.3 28.3c.8 0 1.8-.3 2.5-.2.1 0 .5.3.6.3.4.1.9 0 1.3 0l.1-.6-.6-.6c-1.2-.4-2 .3-3.5-.4l-.1-.1c.4-.2.9-.5 1.3-.7.2 0 1.8.2 1.9.3.9.4 1.8 1.2 2.3 2.1.1 1.1.1 2.2.1 3.3-1.4 1.3-2.3 2.7-4.5 2.3l-.6-.6.2-.4c.6.1 1.4 0 2-.3l.5-.9c-1.1 0-2.8-.6-4-.9.5-.1.9-.1 1.4-.1.4-.1.8-.2 1.3-.3h.3c.3 0 .5.1.8.1h1.5L33 30c-.3-.1-1.7-.6-2-.6-.2 0-.6.1-.7.1-.3 0-1.7-.6-1.9-.8l-.1-.4z"></path><path fill="#FFF" d="M27.1 53.1c.1-.6 0-1.3-.2-1.9-.4-1.5-1.1-2.9-1.4-4.4-.1-.3 0-.7-.1-1.1-.1-.3-.4-.7-.4-1-.1-.4.1-.8.1-1.2-.1-.4-.3-.8-.4-1.2-.2-.6-.2-1.3-.3-1.9 0 0-.5-.9-.6-1l.1-1.4.4-.5c.4.7 1.2.8 1.7 1.4l.8-.2c.4.6 1.1.9 1.8 1.2.2.4.1 1.4.4 2.1-.3.5-.4 1.3-.3 1.8 0 .2.2.8.2.9 0 .1-.2.8-.2.9-.1.8 0 3 .3 3.7l-.6.9c.6.8.2 1.8.3 2.7.2-.6.6-1.2.8-1.8.1-.2 0-.6.1-.8.1-.3.3-.6.4-.9.4-1.2.3-.8 1-1.8.1-.3-.1-.8-.3-1 .5-.3 1-1.6 1.2-2.1l-.5-.4h-.8l.2-.6 1.8-.9V42c-.4-.3-1.2-.6-1.8-.6l.1-.4c.4-.1 1-.6 1.2-1l.9.3c.4-.3.8-.7 1.2-.9.3-.1 1.5-.4 1.8-.2-.2.6-.7 1.7-.8 2.2-.2 1.1 0 1.2-.5 2.4-.2.5-.5 1.1-.8 1.6-.2.4-.5.6-.6 1-.1.5-.2.9-.4 1.3-.3.6-.9 1-1.2 1.7-.2.4-.3.7-.5 1.1 0 .1-.1.1-.1.2-.1.2-.2 1-.3 1.1 0 .1-.7.7-.8.8-.7.9-1.1 2-1.4 3.1-.6-.8-.7-1.8-1.5-2.6zM44.9 34.8c.2-.5 1-1.2 1.4-1.7l.4.5.1.6c.3.2 1 .2 1.3.1l.2-.7.5-.4.8.1.6.8h.4c1.2-.9 2.9-.4 4 .3.6 0 1.4-.1 2-.4l.3-.4s-2.2.4-2.3.4c-.2 0-.4.2-.5.3-.3.1-.8.2-1.1.3-.6.2-1.2 0-1.8 0 0 0-2.1.7-2.2.8-.4 0-.9-.1-1.2-.1-.8.1-1.2.5-1.6.6-.7.2-1.6.3-2.3.3h-1.1c-.4.1-.7.4-1.1.5-.7.2-1.6.4-2.3.5-.2-.2 0-.8.1-1 .5-.2.6-.6.8-1 .4-.6.8-.9.7-1.8l.6-.4-.1.1.5.7c0 .3 0 .9.2 1.1l.5-.2c.1-.5.2-1.1.5-1.5l.3-.1c0 .5.2 1 .4 1.4l.4.3h.6z"></path><path fill="#005C97" d="M45.2 24.9c-.4-.2-.8-.5-1.2-.7l-.6-.3c-.2-.1-.4-.3-.6-.4-.4-.2-.9-.3-1.3-.5-.4-.3-.7-.7-1-.9-.2-1.8-1-3.5-1.2-5.3l.1-.2c.4.3 1 .4 1.4.7 0 0 .5.5.5.6 1.3 1.5 2.3 3 3.1 4.7.4.7.7 1.3.7 2.1l.1.2z"></path><path fill="#FFF" d="M16.3 31.3c.4.1 1-.2 1.2-.4v-.8c.1 0 .4.3.4.4.1.2.2.5.3.8.3.5.7.9.9 1.4l.7.2c.3.4.7.8 1.1 1.2v.8c-.5-.1-1.1-.3-1.6-.4-.5-.1-1.2-.1-1.7-.2-.8-.2-1.5-.9-2.2-1.2-1.2-.5-2.9-.4-4-1.1-.2-.1-.4-.4-.7-.6-.2-.1-.5-.2-.8-.3-.5-.3-.9-.6-1.4-.8-.5-.2-1-.2-1.5-.4-.6-.3-.8-.7-1.3-.9-.2-.1-2-.5-2.3-.6 0-.2.4-.6.6-.7.9-.1 2-.3 2.9-.5.7-.2 1.9-.9 2.3-1 .4-.1 1-.1 1.4-.2.3-.1.6-.3.9-.5.3-.1 1.3-.4 1.6-.5.7-.2 1.6-.1 2.3-.4.9-.3 1.8-.9 2.7-1.2.9-.3 2-.3 2.8-.8l.1.6c-.5 1.2-.2 2.4-.5 3-.1.2-.3.4-.4.7-.4.7-.7 1.3-1.2 2-1.4-.4-2-1-3.6-.4l-.6-.5-.9.7c-.6-.2-1.2-.4-1.8-.7-.5.2-1.4.1-1.8-.2l-.9.6c-.5.1-1.4-.2-1.8-.5l-.6.2.1.6c.5.3 2 1 2.6 1.1l.6-.1c.6-.1 1.2.2 1.8.5l.8-.4c.5.4.9.8 1.4 1.2h.7c.3-.2.6-.4.8-.7.3.4.4.7.6 1zM33.7 10.7h-.8l-.1-.9.5-.8c-.2-.6-.4-1.2-.6-1.7l.5-.7-.6-.9h-.4c0 .1-.4 2.4-.4 2.5 0 .3.1.6.1.9 0 1.1-.7 2.2-.3 3.4l-.3.8.2.9c-.9.9-.3 3-.8 4.2l-.7.5-.6-.1-.7.3-.7-.2c-.6.1-1.4.5-1.9.8l-.5-1c.3-.7.9-1.3 1.2-1.9.1-.2.2-.9.3-1 .1-.1.8-.7.8-.8.3-.6.4-1.5.6-2.1.1-.3.6-.6.7-.9.3-.6.1-1.6.4-2.2.2-.6.6-1.4.9-2 0-.5.3-.8.5-1.1.4-.6 1.3-2.3 1.5-2.9.2.3.5.6.8.7.4 1 1 2.2 1.2 3.3.1.8 0 1.6.3 2.3.1.3.4.5.5.8.4.7.3 1.5.9 2.1-.2.9.5 1.3.7 2 .2.6.2 1.8.3 2.2.1.2.4.6.4.8.2.9.3 2 .4 2.9l-.7.1c-.4-.2-.9-.6-1.1-1-.5 0-1-.1-1.4-.3l-1.1-1.3c.6-.1 1.3-.3 1.8-.5l-.3-.7c-.4.1-1.2.1-1.6-.1l-.4-.5c-.3.1-.9.1-1.2-.1.4-.2.9-1 1.1-1.3.6-.2 1.5-.2 2.1 0l-.1-.8-1-.2c-.4-.5-.9-.9-1.4-1.3v-.3c.6-.3.5-1 1-1.2v-.7z"></path><path fill="#FDB91F" d="M51.5 13.5c.3.2.6.7.7 1l.6.3c.5.5.4 1.1.7 1.6.1.2.6.5.7.7 0 0 .9 2.2.9 2.3.1.2 0 .5.1.7.1.5.5.8.7 1.2.2.4.1.9.2 1.4 0 .2.2.4.2.6.2.5.2 1.1.3 1.6.1.3.3.6.3.8v.9l.3 1.7c.1.6.5 1.1.6 1.7l-.5.8-.6.1c-.4-.3-2.5-.4-2.8-.7-.4-.4.6-1.2.1-1.6l1-.6-.8-1 1.2-1.4-1.6-.1-.1-1.1-.7-.8c-.1-1.1.1-1.2 0-2.3l-1 .3.3-1.2.8-.7-1.8-.8c-.3-.6-.1-1.8.1-2.3l-1.6.1.4-.9c.3-.7.8-1.2 1-1.9l.3-.4zM57 35.7c-.3.6-.3 1.2-.5 1.8-.1.5-.4.7-.6 1.1-.4.7-.3 1.8-1.1 2.3 0 .6-.8 1.8-1.3 2.2l-.1.7c-.4.3-1.8 1.7-2 2.1-.1.2-.1.5-.2.6-.2.3-1.7 1.2-2.3 2.3-.5.1-1.2.5-1.5.8H47c.1-.5-.1-1.2-.4-1.5.1-.5.1-1.1.1-1.6l.5-.6.5.4.7-1h1.5l-.5-1.6.8.2.3-1.3h1.1l-.3-1.4 1.6-.9.4-.8-.6-.6-.1-.6.1-1H54v-1.2l1 .1.8-.1c.4-.1.6.1.9-.2l.3-.2zM31 2.9c-.5.4-.3 1.1-.7 1.6l-.5.1c-.5.3-.7.9-1.2 1.3l-.7-1.1-.6.6c-.5-.2-1.4-.2-1.8.1l-.1.5-1.4-.3-.4.9-1.4-.7-.6 1.4-.9-.2-.6-.7-.9.4-.8 1-.7 1.2c-1.2-.3-1.7-1.4-2.8-1.9v-.5c1.1-.9 3.9-2.4 5.3-2.4.5-.5 1.7-.9 2.4-1 .3 0 .6.1.9.1.3 0 .5-.2.8-.3.5-.1 1 0 1.5-.1.7-.1 1-.4 1.4-.4.5-.1 1 .2 1.4.2.7 0 1.5-.3 2.4.2zM26.2 53.3c.2.3.2 1.7 0 2.1l.3.6-.3.3c-.6-.2-1.4-.2-2-.4-.6-.2-1.2-.7-1.9-.7-.2 0-.5.1-.7 0-.1 0-.1 0-.2-.1-.5-.2-.9-.4-1.3-.5-.1 0-.1 0-.2-.1 0 0-.4-.4-.5-.4-.4 0-2-.7-2.3-.9-.2-.1-.3-.4-.5-.6-.8-.5-1.5-.6-2.3-1.4-.4-.4-.8-.9-1.2-1.2l.2-.6c.5-.3 1.2-.6 1.8-.7.2.1 1.5.4 1.6.5 0 0 .1.6.2 1.6.4 0 1.6-.4 1.9 0l-.3.7 1.3.7 1.1-.5.2 1.1 1.2-.3 1.2 1.2.5-.7c1 .1 1.6.3 2.2.3zM30.2 56c.5-.5 1.4-2.1 2-2.8l.2.7 1-.8 1 .8.9-.5.3-.8.7.4 1-1 1.3.3.2-.4c.5-.2 1.2-.4 1.7-.4l.8-1.2.9.1.3-.9c1.4.1 1 .9 1.9 1.2.1.3.5.7.5 1 .1-.1-.2.3-.3.3-.3.2-2.6 1.5-3 1.6-.6.2-1.2.3-1.9.6-.6.3-1.1.7-1.8.8-.3.1-.7.1-1.1.1-.3.1-.7.2-1 .3-.7.4-5.1 1.2-5.6.6zM48.3 10.6l-.4.1c-.3.1-.5.3-.8.4-.5.3-1.2.2-1.7.5l.4-1c-.8-.9-1.3 0-2.2-.7l-.4-1-1.4-.2-.3-.9c-.6.2-1.6.3-2.2.2-.2-.5-.8-1-1.1-1.4l-1.4.3-.3-1-1.4.5-.3-.8c.1-.8-.4-1.7-.9-2.3l.3-.4c.4.1.9.4 1.4.4h.7c.1 0 .5.3.6.3.4.2 1 .1 1.4.3.2.1.4.3.6.4.4.2.9.2 1.3.4.2.1.4.3.5.4.5.3 1.2.5 1.7.8.6.3 1.2.8 1.8 1.1.3.1.7.3.9.4.4.3.8.8 1.2 1.2.6.5 1.4.8 1.9 1.4l.1.6zM12.8 12.1c-.5.3-1 .8-1.3 1.3L11 13l-1.3 1.9.4.6-1.1.6.6 1.3-1.4.2c.1.5 0 1.3-.2 1.8l-.7-.7-.7 2.6 1 .6c-.3.6-1.2 1.3-1.9 1.4.1.7.7 1.7.5 2.3l-.9.4-1.5.2-.4-.1c-.3-.9.5-1.6.2-2.6.2-.3.4-.9.3-1.2.5-.4.4-1.2.5-1.8.1-.5.3-.7.5-1.2.2-.4.2-1 .3-1.4.1-.4.4-1 .6-1.4.1-.2.4-.4.5-.6.3-.5.2-.9.9-1.3 0-.4.3-1.2.6-1.5.2-.1.5-.2.7-.4.4-.3 1.2-1.4 1.4-1.9.8-.1 1.4-.8 1.9-1.4l.4.1c.2.4.5.8.7 1.2-.1.5-.1 1-.1 1.4zM9.9 47.4c-.4-.3-1-.6-1.3-1-.2-.2-.3-.6-.4-.8-.3-.5-.7-.9-1-1.4-.2 0-.3-.1-.3-.2-.2-.3-.2-.7-.4-1-.1-.2-.5-.4-.7-.7l-.2-.5c-.2-.6-.4-1.4-.6-2.1v-.1c-.1-.2 0-.5 0-.8-.1-.7-.6-1.5-.9-2.1.3-1.2-.6-2.6-.6-3.8 0-.2.1-.9.1-1-.1-.6-.5-1-.5-1.9l.2-.2c.6 0 1.1.4 1.6.6l.6.6.9.3c.3.3-.1 1.4-.1 1.8l-.5.6.6 1.2 1.5.4c-.4.5-.9 1.5-.8 2.1l1 .8-.3 1 .6.7-.4.9c1 .4 1.6.2 2 1.2l-.5 1.5c.4.5 1.6 1.1 2.2 1.4-.4.6-1.2 1.6-1.1 2.3l-.7.2z"></path></g><g fill="#FFF"><path d="M77.8 64.4v-1.2l2 .1v-1.9l-2 .1v-1.4l2.4.1v-1.9h-4.8v7.9l5 .2-.1-2zM91.4 62.4l-5.6-4.1-.4 7.9 2.2.1-.1-4 5.6 4.3.5-8.2h-2.4zM98.9 66.2h2.6v-7.7H99zM109.5 58.5h-2.2l-.1 7.8s7.2.3 7.6-4.6c0 0 .7-3.2-5.3-3.2zm2.7 3.3c-.2 2.1-2.6 2.4-2.6 2.4v-4c2.9 0 2.6 1.6 2.6 1.6zM124.1 58.3s-4.4-.3-4.9 3.7 3.9 4.4 3.9 4.4 4.4.4 4.9-3.8c.6-4.3-3.9-4.3-3.9-4.3zm1.3 4.2c-.2 2.6-2.4 2-2.4 2s-1.5-.2-1.3-2.4c.2-2.2 1.9-2.2 1.9-2.2s2.1 0 1.8 2.6zM139.6 60.4c0-1.4-2.1-1.8-2.1-1.8s-1-.2-2.6-.1h-1.7v7.7h2.5l-.1-6.2s1.6 0 1.5 1c0 1-1.3 1.7-1.3 1.7l2.7 4 1.9-1.6-2.3-2.5c.1 0 1.5-.8 1.5-2.2zM152.3 58.3l-2.5 4.2-2.7-4.3-3.1 7.5 2.2.9 1.1-3.9 2.3 3.5 2.3-3.6 1.6 4 2.2-1zM68.5 62.1s1.5-.6 1.4-1.7c-.1-1.3-1.5-1.7-1.5-1.7s-1.2-.2-2.2-.2H64v7.8h1.8s4.5-.1 4.5-2.5c-.1-.1.1-1.6-1.8-1.7zm-2.2-2.4s1.1 0 1.2.8c.1.8-1.2 1.2-1.2 1.2v-2zm0 5.3v-2.1s1.3-.1 1.4.9c.1.9-1.4 1.2-1.4 1.2z"></path><path fill-rule="evenodd" clip-rule="evenodd" d="M128.9 20.8c0 .1 0 .2.1.4l3.6 6.5 4.2-10.9 2.8-8.7.1-.5h9.6l.1.5c.4 1.6 1.3 5.2 2.8 10.7 1.4 5.2 2.5 8.6 3.3 10.6l.3.5h-7.2l-.1-.2-.1-.4c-.1-.6-.6-3.1-.6-3.1-1.8-.3-3.9-.4-5.7-.4-.6 0-.8 0-1.3.1l-.1.1c-.2.3-.6 1-1 2.1l-.7 1.5-.3.5h-11.3l-4.2-7.4c0 .3-.1.6-.1 1v.4l.3 6.1h-6.3V7.8h8.9c.8 0 2.2 1.2 3.7 2.9l2.6 2.9c.4.5.7 1.2.7 1.8 0 .9-.8 2.1-2 3.2l-2 1.9c.1 0 0 .1-.1.3zm-29 11.6L96 37.3h-4.3l1.7-4.8 6.5-.1zm45-18.7c.3.3.7 1.1 1.2 2.3l1.3 3 .1.3c-.5.1-.8.1-2.4.1-1.3 0-2.9-.1-3.1-.2l.1-.3.9-2.4c.6-1.5 1.1-2.5 1.4-2.8h.5zm-22.7-1.1h.2c1.7 0 3.6 1.4 4.1 3-.9 2.1-2.4 3.5-4 3.6 0-.2 0-.2-.1-.3-.1-.7-.2-1.9-.2-3.4l-.1-2.7v-.2zm-17.5 0h.2c1.7 0 3.6 1.4 4.1 3-.9 2.1-2.4 3.5-4 3.6 0-.2 0-.2-.1-.3-.1-.7-.2-1.9-.2-3.4l-.1-2.7v-.2zm6.6 8.2c0 .1 0 .2.1.4l4.2 7.9-5.7.9-4.3-7.5c0 .3-.1.6-.1 1v.4l.3 6.1h-6.3V7.8h8.9c.8 0 2.2 1.2 3.7 2.9l2.6 2.9c.4.5.7 1.2.7 1.8 0 .9-.8 2.1-2 3.2l-2 1.9c.1 0 .1.1-.1.3zM97.8 24v.5c0 .5-.1 1.3-.3 2.3l-.5 2.7v.4h-.4l-4.5-.1-8.3.1h-.6v-.6l.2-11.3-.4-9.7v-.5H87.9c1.3 0 3.5-.1 6.7-.4h.4l.1.4 1.5 3c.5 1 .6 1.5 1.1 2.9l.1.4-.4-.1c-1.4-.4-4.6-.8-7.5-.8h-.4l-.3 3.4 7.6-.5v3l.1 2.4v.6l-6.9-.6-.3 3c1.1 0 1.5-.1 3.7-.4 1.7-.3 3-.5 3.8-.7l.5-.2v.3c.1.3.1.4.1.5 0-.1 0-.1 0 0zM81.7 7.7l-1 6.6-2.6-.3h-1-.1-.1c-.4 0-.6.1-.7.5-.1.6-.2 1.6-.2 3.6v.8l.3 10.6v.4H76c-1.9 0-3.1-.1-3.6 0-.8 0-1.6.1-2.2.1h-1.1l.1-.6c.2-2.1.3-4.4.3-6.9 0-3.6-.2-6.4-.5-8.2l-5.1.4.6-6.7 17.2-.3zM146.3 39c.1.1.2.1.2.1.3.3.6 1 1 2l1.1 2.5.1.3c-.4.1-.7.1-2 .1-1.1 0-1.8 0-2.1-.1-.1 0-.2-.1-.4-.1v-.2l.8-2c.5-1.3.9-2.1 1.1-2.4 0 0 .1 0 .2-.2zm-3.4-4.8c1.2-.1 2.4-.1 3.6-.1 2.1 0 3.3.1 3.5.1h.4l.1.3c.3 1.4 1.1 4.3 2.4 8.9 1.2 4.3 2.1 7.3 2.7 9l.1.2h-2.9c-1.5 0-2.5-.1-2.8-.1h-.2v-.3c-.1-.5-.2-.9-.3-1.4-.1-.7-.1-1.1-.2-1.2v-.1h-.1c-1.5-.3-3.3-.5-4.8-.5h-1.2s0 .1-.1.1c-.2.3-.5.8-.8 1.8l-.6 1.4v.2H138c-.9 0-1.5 0-1.9-.1H135.8l.2-.4 4-10.3 2.3-7.3.1-.3h.5zm-6.7 4.7h-.2c-3.1.4-5.4 1.8-6.2 3.7-.1.3-.3.9-.3 1.1 0 .3.2.7.4 1.1 1.1 1.7 2.7 2.6 5.8 3.3h.1l-2.5 4.4c-.1 0-.2.1-.3.1h-.2c-.7 0-1.9-.5-3.6-1.4-1.5-.8-2.8-1.8-3.8-3-1.1-1.3-1.8-3-1.8-4.6 0-2.9 1.9-5.9 4.7-7.6 1.7-1 2.3-1.3 4.6-1.9h.1l3.2 4.8zm-14-4.3v.3l-.6 11.1.2 6.2v.3h-5.9v-.3c.3-2.5.5-7.3.5-12.5 0-2.2 0-3.9-.1-5v-.3l5.9.2zm-8-.3l-.8 5.3-2.1-.2H110.5h-.1-.1c-.7 0-.8.2-.8 3.5v.7l.3 8.9v.3h-.3c-1.6 0-2.6-.1-3 0-.7 0-1.3.1-1.8.1h-.8v-.4c.1-1.8.2-3.7.2-5.8 0-3-.2-5.3-.4-6.9v-.2l-4.2.4.6-5.2 14.1-.5zm-16.4 4.6v.3l-.4 6.9.1 6.2v.3h-5.9v-.3c.3-2.5.5-12.2.4-13.3v-.3l5.8.2zm-25.3-4.4l4.6 9.6.1.2c.1.2.1.2.2.3 0 0 .2-.1.3-.3l4.7-9.8 3.1.1 4.5 18-5.7-.1-1-8.9v-.2c0-.1 0-.1-.1-.2 0 0-.1 0-.1.1-.1.1-.1.2-.2.2l-4 8.5-3.4.1-3.4-7.8-.1-.1c-.1-.1-.1-.1-.1-.2 0 0-.1 0-.1.1s-.1.1-.1.2l-2.3 8.1-5.9.1L70 34.4l2.5.1z"></path></g></svg> 